<mxfile host="app.diagrams.net" modified="2024-01-16T06:10:44.565Z" agent="Mozilla/5.0 (Windows NT 10.0; Win64; x64) AppleWebKit/537.36 (KHTML, like Gecko) Chrome/120.0.0.0 Safari/537.36" etag="2mrYBOhIKTWhdFofhFff" version="22.1.18" type="github">
  <diagram name="Page-1" id="DQsl0vWJsLTHif2qzQwF">
    <mxGraphModel dx="1760" dy="868" grid="1" gridSize="10" guides="1" tooltips="1" connect="1" arrows="1" fold="1" page="1" pageScale="1" pageWidth="850" pageHeight="1100" math="0" shadow="0">
      <root>
        <mxCell id="0" />
        <mxCell id="1" parent="0" />
        <mxCell id="WWjYw27nMBq7hVmex1tp-2" style="edgeStyle=orthogonalEdgeStyle;rounded=0;orthogonalLoop=1;jettySize=auto;html=1;exitX=0.5;exitY=1;exitDx=0;exitDy=0;entryX=0.5;entryY=0;entryDx=0;entryDy=0;" edge="1" parent="1" source="1hwnzTY7kPKber7_JiTr-2" target="1hwnzTY7kPKber7_JiTr-17">
          <mxGeometry relative="1" as="geometry" />
        </mxCell>
        <mxCell id="1hwnzTY7kPKber7_JiTr-2" value="" style="whiteSpace=wrap;html=1;aspect=fixed;" parent="1" vertex="1">
          <mxGeometry x="130" y="190" width="120" height="120" as="geometry" />
        </mxCell>
        <mxCell id="WWjYw27nMBq7hVmex1tp-5" style="edgeStyle=orthogonalEdgeStyle;rounded=0;orthogonalLoop=1;jettySize=auto;html=1;exitX=0.5;exitY=1;exitDx=0;exitDy=0;" edge="1" parent="1" source="1hwnzTY7kPKber7_JiTr-4" target="1hwnzTY7kPKber7_JiTr-17">
          <mxGeometry relative="1" as="geometry" />
        </mxCell>
        <mxCell id="1hwnzTY7kPKber7_JiTr-4" value="" style="whiteSpace=wrap;html=1;aspect=fixed;" parent="1" vertex="1">
          <mxGeometry x="383" y="190" width="120" height="120" as="geometry" />
        </mxCell>
        <mxCell id="WWjYw27nMBq7hVmex1tp-4" style="edgeStyle=orthogonalEdgeStyle;rounded=0;orthogonalLoop=1;jettySize=auto;html=1;exitX=0.5;exitY=1;exitDx=0;exitDy=0;" edge="1" parent="1" source="1hwnzTY7kPKber7_JiTr-7" target="1hwnzTY7kPKber7_JiTr-17">
          <mxGeometry relative="1" as="geometry" />
        </mxCell>
        <mxCell id="1hwnzTY7kPKber7_JiTr-7" value="" style="whiteSpace=wrap;html=1;aspect=fixed;" parent="1" vertex="1">
          <mxGeometry x="660" y="190" width="120" height="120" as="geometry" />
        </mxCell>
        <mxCell id="1hwnzTY7kPKber7_JiTr-8" value="&lt;font style=&quot;font-size: 9px;&quot;&gt;&lt;b&gt;Nginx&lt;/b&gt;&lt;/font&gt;" style="text;html=1;strokeColor=#0000CC;fillColor=none;align=center;verticalAlign=middle;whiteSpace=wrap;rounded=0;shadow=0;" parent="1" vertex="1">
          <mxGeometry x="160" y="260" width="60" height="30" as="geometry" />
        </mxCell>
        <mxCell id="1hwnzTY7kPKber7_JiTr-9" value="Web-Server" style="text;html=1;strokeColor=none;fillColor=none;align=center;verticalAlign=middle;whiteSpace=wrap;rounded=0;" parent="1" vertex="1">
          <mxGeometry x="145" y="220" width="90" height="30" as="geometry" />
        </mxCell>
        <mxCell id="1hwnzTY7kPKber7_JiTr-10" value="PHP-FPM" style="text;html=1;strokeColor=none;fillColor=none;align=center;verticalAlign=middle;whiteSpace=wrap;rounded=0;" parent="1" vertex="1">
          <mxGeometry x="405.5" y="220" width="75" height="30" as="geometry" />
        </mxCell>
        <mxCell id="1hwnzTY7kPKber7_JiTr-11" value="&lt;b&gt;PHP-FPM&lt;/b&gt;" style="text;html=1;strokeColor=#0000CC;fillColor=none;align=center;verticalAlign=middle;whiteSpace=wrap;rounded=0;" parent="1" vertex="1">
          <mxGeometry x="407.5" y="260" width="75" height="30" as="geometry" />
        </mxCell>
        <mxCell id="1hwnzTY7kPKber7_JiTr-12" value="Redis" style="text;html=1;strokeColor=none;fillColor=none;align=center;verticalAlign=middle;whiteSpace=wrap;rounded=0;" parent="1" vertex="1">
          <mxGeometry x="690" y="220" width="60" height="30" as="geometry" />
        </mxCell>
        <mxCell id="1hwnzTY7kPKber7_JiTr-13" value="&lt;b&gt;Redis&lt;/b&gt;" style="text;html=1;strokeColor=#0000CC;fillColor=none;align=center;verticalAlign=middle;whiteSpace=wrap;rounded=0;" parent="1" vertex="1">
          <mxGeometry x="680" y="260" width="80" height="30" as="geometry" />
        </mxCell>
        <mxCell id="1hwnzTY7kPKber7_JiTr-17" value="" style="rounded=0;whiteSpace=wrap;html=1;" parent="1" vertex="1">
          <mxGeometry x="300" y="460" width="190" height="90" as="geometry" />
        </mxCell>
        <mxCell id="1hwnzTY7kPKber7_JiTr-18" value="&lt;b&gt;LoadBlanacer&lt;/b&gt;" style="text;html=1;strokeColor=none;fillColor=none;align=center;verticalAlign=middle;whiteSpace=wrap;rounded=0;" parent="1" vertex="1">
          <mxGeometry x="366.25" y="490" width="105" height="30" as="geometry" />
        </mxCell>
        <mxCell id="WWjYw27nMBq7hVmex1tp-9" style="edgeStyle=orthogonalEdgeStyle;rounded=0;orthogonalLoop=1;jettySize=auto;html=1;exitX=1;exitY=0.5;exitDx=0;exitDy=0;entryX=0;entryY=0.5;entryDx=0;entryDy=0;" edge="1" parent="1" source="1hwnzTY7kPKber7_JiTr-20" target="1hwnzTY7kPKber7_JiTr-25">
          <mxGeometry relative="1" as="geometry" />
        </mxCell>
        <mxCell id="1hwnzTY7kPKber7_JiTr-20" value="" style="rounded=0;whiteSpace=wrap;html=1;" parent="1" vertex="1">
          <mxGeometry x="300" y="660" width="230" height="100" as="geometry" />
        </mxCell>
        <mxCell id="1hwnzTY7kPKber7_JiTr-21" value="&lt;h3 style=&quot;border: 0px solid rgb(217, 217, 227); box-sizing: border-box; --tw-border-spacing-x: 0; --tw-border-spacing-y: 0; --tw-translate-x: 0; --tw-translate-y: 0; --tw-rotate: 0; --tw-skew-x: 0; --tw-skew-y: 0; --tw-scale-x: 1; --tw-scale-y: 1; --tw-pan-x: ; --tw-pan-y: ; --tw-pinch-zoom: ; --tw-scroll-snap-strictness: proximity; --tw-gradient-from-position: ; --tw-gradient-via-position: ; --tw-gradient-to-position: ; --tw-ordinal: ; --tw-slashed-zero: ; --tw-numeric-figure: ; --tw-numeric-spacing: ; --tw-numeric-fraction: ; --tw-ring-inset: ; --tw-ring-offset-width: 0px; --tw-ring-offset-color: #fff; --tw-ring-color: rgba(69,89,164,.5); --tw-ring-offset-shadow: 0 0 transparent; --tw-ring-shadow: 0 0 transparent; --tw-shadow: 0 0 transparent; --tw-shadow-colored: 0 0 transparent; --tw-blur: ; --tw-brightness: ; --tw-contrast: ; --tw-grayscale: ; --tw-hue-rotate: ; --tw-invert: ; --tw-saturate: ; --tw-sepia: ; --tw-drop-shadow: ; --tw-backdrop-blur: ; --tw-backdrop-brightness: ; --tw-backdrop-contrast: ; --tw-backdrop-grayscale: ; --tw-backdrop-hue-rotate: ; --tw-backdrop-invert: ; --tw-backdrop-opacity: ; --tw-backdrop-saturate: ; --tw-backdrop-sepia: ; font-size: 1.25em; margin: 1rem 0px 0.5rem; line-height: 1.6; color: var(--tw-prose-headings); font-family: SÃ¶hne, ui-sans-serif, system-ui, -apple-system, &amp;quot;Segoe UI&amp;quot;, Roboto, Ubuntu, Cantarell, &amp;quot;Noto Sans&amp;quot;, sans-serif, &amp;quot;Helvetica Neue&amp;quot;, Arial, &amp;quot;Apple Color Emoji&amp;quot;, &amp;quot;Segoe UI Emoji&amp;quot;, &amp;quot;Segoe UI Symbol&amp;quot;, &amp;quot;Noto Color Emoji&amp;quot;; text-align: start;&quot;&gt;MySQL&lt;/h3&gt;" style="text;html=1;strokeColor=none;fillColor=none;align=center;verticalAlign=middle;whiteSpace=wrap;rounded=0;" parent="1" vertex="1">
          <mxGeometry x="395" y="695" width="60" height="30" as="geometry" />
        </mxCell>
        <mxCell id="1hwnzTY7kPKber7_JiTr-22" style="edgeStyle=orthogonalEdgeStyle;rounded=0;orthogonalLoop=1;jettySize=auto;html=1;exitX=0.5;exitY=1;exitDx=0;exitDy=0;" parent="1" source="1hwnzTY7kPKber7_JiTr-21" target="1hwnzTY7kPKber7_JiTr-21" edge="1">
          <mxGeometry relative="1" as="geometry" />
        </mxCell>
        <mxCell id="1hwnzTY7kPKber7_JiTr-25" value="" style="rounded=0;whiteSpace=wrap;html=1;" parent="1" vertex="1">
          <mxGeometry x="630" y="660" width="150" height="100" as="geometry" />
        </mxCell>
        <mxCell id="1hwnzTY7kPKber7_JiTr-29" value="" style="whiteSpace=wrap;html=1;aspect=fixed;" parent="1" vertex="1">
          <mxGeometry x="353" y="830" width="145" height="145" as="geometry" />
        </mxCell>
        <mxCell id="1hwnzTY7kPKber7_JiTr-30" value="&lt;b&gt;Elasticsearch &lt;/b&gt;" style="text;html=1;strokeColor=none;fillColor=none;align=center;verticalAlign=middle;whiteSpace=wrap;rounded=0;" parent="1" vertex="1">
          <mxGeometry x="366.25" y="910" width="120" height="40" as="geometry" />
        </mxCell>
        <mxCell id="1hwnzTY7kPKber7_JiTr-31" value="" style="outlineConnect=0;dashed=0;verticalLabelPosition=bottom;verticalAlign=top;align=center;html=1;shape=mxgraph.aws3.classic_load_balancer;fillColor=#F58534;gradientColor=none;" parent="1" vertex="1">
          <mxGeometry x="323" y="484.5" width="30" height="41" as="geometry" />
        </mxCell>
        <mxCell id="1hwnzTY7kPKber7_JiTr-32" value="" style="image;aspect=fixed;perimeter=ellipsePerimeter;html=1;align=center;shadow=0;dashed=0;spacingTop=3;image=img/lib/active_directory/web_server.svg;" parent="1" vertex="1">
          <mxGeometry x="136" y="195" width="24" height="30" as="geometry" />
        </mxCell>
        <mxCell id="1hwnzTY7kPKber7_JiTr-33" value="" style="outlineConnect=0;dashed=0;verticalLabelPosition=bottom;verticalAlign=top;align=center;html=1;shape=mxgraph.aws3.android;fillColor=#5A69A4;gradientColor=none;" parent="1" vertex="1">
          <mxGeometry x="395" y="197.5" width="21.75" height="30" as="geometry" />
        </mxCell>
        <mxCell id="1hwnzTY7kPKber7_JiTr-34" value="" style="outlineConnect=0;dashed=0;verticalLabelPosition=bottom;verticalAlign=top;align=center;html=1;shape=mxgraph.aws3.redis;fillColor=#2E73B8;gradientColor=none;" parent="1" vertex="1">
          <mxGeometry x="670" y="200" width="30" height="25" as="geometry" />
        </mxCell>
        <mxCell id="1hwnzTY7kPKber7_JiTr-36" value="" style="outlineConnect=0;dashed=0;verticalLabelPosition=bottom;verticalAlign=top;align=center;html=1;shape=mxgraph.aws3.mysql_db_instance;fillColor=#2E73B8;gradientColor=none;" parent="1" vertex="1">
          <mxGeometry x="320" y="677.75" width="60" height="64.5" as="geometry" />
        </mxCell>
        <mxCell id="1hwnzTY7kPKber7_JiTr-38" value="SQL replica" style="sketch=0;outlineConnect=0;fontColor=#232F3E;gradientColor=none;strokeColor=#232F3E;fillColor=#ffffff;dashed=0;verticalLabelPosition=bottom;verticalAlign=top;align=center;html=1;fontSize=12;fontStyle=0;aspect=fixed;shape=mxgraph.aws4.resourceIcon;resIcon=mxgraph.aws4.sql_replica;" parent="1" vertex="1">
          <mxGeometry x="680" y="690" width="40" height="40" as="geometry" />
        </mxCell>
        <mxCell id="1hwnzTY7kPKber7_JiTr-39" value="" style="outlineConnect=0;dashed=0;verticalLabelPosition=bottom;verticalAlign=top;align=center;html=1;shape=mxgraph.aws3.elasticsearch_service;fillColor=#F58534;gradientColor=none;" parent="1" vertex="1">
          <mxGeometry x="366.25" y="840" width="41.25" height="58" as="geometry" />
        </mxCell>
        <mxCell id="WWjYw27nMBq7hVmex1tp-8" style="edgeStyle=orthogonalEdgeStyle;rounded=0;orthogonalLoop=1;jettySize=auto;html=1;exitX=0.5;exitY=1;exitDx=0;exitDy=0;entryX=0.411;entryY=-0.035;entryDx=0;entryDy=0;entryPerimeter=0;" edge="1" parent="1" source="1hwnzTY7kPKber7_JiTr-17" target="1hwnzTY7kPKber7_JiTr-20">
          <mxGeometry relative="1" as="geometry" />
        </mxCell>
        <mxCell id="WWjYw27nMBq7hVmex1tp-10" style="edgeStyle=orthogonalEdgeStyle;rounded=0;orthogonalLoop=1;jettySize=auto;html=1;exitX=0.5;exitY=1;exitDx=0;exitDy=0;entryX=0.424;entryY=0;entryDx=0;entryDy=0;entryPerimeter=0;" edge="1" parent="1" source="1hwnzTY7kPKber7_JiTr-20" target="1hwnzTY7kPKber7_JiTr-29">
          <mxGeometry relative="1" as="geometry" />
        </mxCell>
        <mxCell id="WWjYw27nMBq7hVmex1tp-11" value="" style="whiteSpace=wrap;html=1;aspect=fixed;" vertex="1" parent="1">
          <mxGeometry x="120" y="30" width="110" height="110" as="geometry" />
        </mxCell>
        <mxCell id="WWjYw27nMBq7hVmex1tp-15" value="WAF&lt;br&gt;&lt;font style=&quot;font-size: 6px;&quot;&gt;(web application Firewall)&lt;/font&gt;" style="text;html=1;strokeColor=none;fillColor=none;align=center;verticalAlign=middle;whiteSpace=wrap;rounded=0;" vertex="1" parent="1">
          <mxGeometry x="130" y="60" width="90" height="50" as="geometry" />
        </mxCell>
        <mxCell id="WWjYw27nMBq7hVmex1tp-16" style="edgeStyle=orthogonalEdgeStyle;rounded=0;orthogonalLoop=1;jettySize=auto;html=1;exitX=0.5;exitY=1;exitDx=0;exitDy=0;entryX=0.379;entryY=-0.011;entryDx=0;entryDy=0;entryPerimeter=0;" edge="1" parent="1" source="WWjYw27nMBq7hVmex1tp-11" target="1hwnzTY7kPKber7_JiTr-2">
          <mxGeometry relative="1" as="geometry" />
        </mxCell>
      </root>
    </mxGraphModel>
  </diagram>
</mxfile>
